<svg xmlns="http://www.w3.org/2000/svg" width="250" height="64" viewBox="0 0 250 64" fill="none"><g clip-path="url(#clip0_343_2)"><path d="M241.995 3.1723C241.995 1.42688 243.421 0 245.185 0C246.93 0 248.329 1.42688 248.329 3.1723C248.329 4.93564 246.93 6.36231 245.185 6.36231C243.421 6.36231 241.995 4.93564 241.995 3.1723ZM247.829 3.1723C247.829 1.62872 246.725 0.41793 245.185 0.41793C243.63 0.41793 242.497 1.62872 242.497 3.1723C242.497 4.73381 243.63 5.94114 245.185 5.94114C246.725 5.94114 247.829 4.73381 247.829 3.1723ZM246.767 4.95336H246.25L245.234 3.31405H244.434V4.95336H243.999V1.40203H245.553C246.488 1.40203 246.813 1.75622 246.813 2.34032C246.813 3.03788 246.321 3.29979 245.695 3.31405L246.767 4.95336ZM245.1 2.97046C245.602 2.97046 246.342 3.0556 246.342 2.33319C246.342 1.77739 245.886 1.71364 245.45 1.71364H244.434V2.97046H245.1Z" fill="#231F20"></path><path d="M31.8471 63.7555C14.2577 63.7555 0 49.4979 0 31.9085C0 14.3228 14.2577 0.0615234 31.8471 0.0615234H218.153C235.742 0.0615234 250 14.3228 250 31.9085C250 49.4979 235.742 63.7555 218.153 63.7555H31.8471ZM218.153 61.1213C234.259 61.1213 247.362 48.0144 247.362 31.9085C247.362 15.8026 234.259 2.69574 218.153 2.69574H31.8471C15.7377 2.69574 2.63422 15.8026 2.63422 31.9085C2.63422 48.0144 15.7377 61.1213 31.8471 61.1213H218.153Z" fill="#020000"></path><path d="M156.486 15.1316C156.234 14.7988 155.76 14.2502 155.218 13.6129L154.687 12.9933C154.057 12.2603 153.526 11.6302 153.108 11.1133C152.665 10.6141 151.182 8.90048 150.658 7.97623C150.424 7.56219 150.152 7.03103 150.067 6.86463C149.939 6.59192 149.698 6.4292 149.426 6.4292C149.15 6.4292 148.912 6.58846 148.781 6.86463C148.7 7.02757 148.427 7.55852 148.19 7.97623C147.666 8.90048 146.183 10.6141 145.733 11.1202C145.244 11.7292 144.639 12.4445 144.165 12.9933L143.718 13.5137C143.134 14.197 142.628 14.7848 142.362 15.1316C140.79 17.2172 139.99 19.4051 139.99 21.6286C139.99 22.096 140.026 22.5634 140.096 23.0235C140.486 25.5267 141.601 27.6049 143.322 29.0318C144.933 30.3701 147.1 31.1065 149.426 31.1065C151.748 31.1065 153.915 30.3701 155.526 29.0318C157.247 27.6049 158.366 25.5302 158.752 23.0235C158.822 22.5634 158.858 22.096 158.858 21.6286C158.854 19.4017 158.058 17.2172 156.486 15.1316Z" fill="#2D2A2B"></path><path d="M101.336 10.7148H95.9754C85.7114 10.7183 77.3628 19.067 77.3628 29.3272V35.1409C77.3628 45.4013 85.7114 53.7498 95.9754 53.7535H101.336C111.593 53.7498 119.941 45.4013 119.945 35.1409V29.3272C119.941 19.0633 111.593 10.7148 101.336 10.7148ZM84.4545 29.3272C84.4651 22.9863 89.6307 17.8205 95.9754 17.8099H101.336C107.673 17.8205 112.842 22.9863 112.853 29.3272V35.1409C112.842 41.4783 107.673 46.6441 101.336 46.6618H95.9754C89.6307 46.6441 84.4651 41.4783 84.4545 35.1409V29.3272Z" fill="#020000"></path><path d="M168.432 11.2961C167.335 14.2314 156.572 42.69 156.515 42.8352C156.451 42.9839 156.405 43.1042 156.38 43.168C156.363 43.2 156.356 43.2246 156.356 43.2246C154.982 46.0181 153.392 46.6342 152.305 46.659H149.476H146.658C145.571 46.6342 143.981 46.0181 142.611 43.2389C142.604 43.2246 142.597 43.2069 142.586 43.1822C142.555 43.1008 142.505 42.9839 142.445 42.8458C142.388 42.6936 131.65 14.2986 130.527 11.2961L130.471 11.1475H122.894L123.011 11.4591C123.107 11.7141 132.638 37.1385 135.36 44.1983L135.64 44.9065C135.881 45.5295 136.026 45.9048 136.185 46.2588C138.235 50.6633 142.126 53.294 146.594 53.294L149.476 53.2904L152.362 53.294C156.834 53.294 160.725 50.6633 162.775 46.2553C162.937 45.8977 163.086 45.5083 163.337 44.8676L163.596 44.1983C166.322 37.1385 175.853 11.7141 175.949 11.4591L176.066 11.1475H168.489L168.432 11.2961Z" fill="#020000"></path><path d="M46.1956 17.8085H51.5559C56.4205 17.8193 60.786 20.903 62.4112 25.4879L62.4678 25.6402H69.8003L69.7401 25.3606C67.8955 16.8739 60.2479 10.7134 51.5559 10.7134H46.1956C35.9316 10.7168 27.583 19.0655 27.583 29.3294V35.1431C27.583 45.3999 35.9316 53.7483 46.1956 53.752H51.5559C60.2514 53.7483 67.8989 47.5879 69.7401 39.1013L69.8003 38.8217H62.4678L62.4112 38.9773C60.786 43.5624 56.4241 46.6461 51.5559 46.6604H46.1956C39.8545 46.6461 34.6889 41.4771 34.6746 35.1431V29.3294C34.6889 22.9883 39.8545 17.8193 46.1956 17.8085Z" fill="#020000"></path><path d="M198.083 17.8085H203.444C207.724 17.8156 211.629 20.1702 213.63 23.962L213.694 24.0824H221.309L221.217 23.7851C218.781 15.9675 211.64 10.7134 203.444 10.7134H198.083C187.904 10.7168 179.931 18.892 179.931 29.3294V35.1431C179.931 45.5734 187.904 53.7483 198.083 53.752H203.444C211.64 53.7483 218.781 48.4944 221.217 40.684L221.309 40.383H213.694L213.63 40.5068C211.626 44.2917 207.724 46.6498 203.444 46.6604H198.083C192.252 46.6461 187.837 42.086 187.504 35.7803H202.587V28.6887H187.504C187.837 22.3793 192.252 17.8193 198.083 17.8085Z" fill="#020000"></path></g><defs><clipPath id="clip0_343_2"><rect width="250" height="63.7554" fill="white"></rect></clipPath></defs></svg>